<svg width="586" height="309" viewBox="0 0 586 309" fill="none" xmlns="http://www.w3.org/2000/svg">
<g clip-path="url(#clip0_66_404)">
<path d="M541.07 244.342C540.417 245.736 539.767 247.111 539.118 248.468C538.105 250.576 537.105 252.643 536.118 254.668C535.679 255.566 535.24 256.447 534.813 257.328C529.973 267.125 525.454 275.79 521.616 282.916C518.134 289.373 512.963 294.783 506.645 298.579C500.327 302.376 493.096 304.419 485.707 304.495L400.367 305.415H399.466L392.151 305.493L385.893 305.56L366.703 305.766H365.926L356.157 305.872H355.859L295.645 306.519L241.897 307.076L235.645 307.143L196.815 307.562H196.77L171.587 307.829H171.317L91.6885 308.682L67.8674 308.939C65.8391 308.962 63.8112 308.861 61.7953 308.638C61.1088 308.56 60.4222 308.47 59.7413 308.364C48.6315 306.665 38.4448 301.246 30.878 293.008C20.6304 281.84 13.174 268.809 8.16551 254.668C7.44145 252.628 6.76615 250.561 6.13962 248.468C-11.1986 190.395 9.93817 115.472 47.9799 65.333C49.5743 63.2365 51.1951 61.192 52.842 59.1995L52.8814 59.1549C64.5809 44.9252 77.6986 33.0374 91.6716 24.5843C116.432 9.57953 143.866 5.353 170.85 17.949C193.681 28.6101 214.998 33.6228 235.662 34.9834C237.75 35.1172 239.837 35.2175 241.914 35.2789C289.314 36.7565 333.737 19.8336 385.904 8.91042C387.981 8.4755 390.063 8.04616 392.162 7.63912C429.376 0.301225 470.659 -3.56845 519.753 4.5668C524.854 5.3924 529.887 6.58508 534.813 8.13537C536.977 8.82679 539.063 9.57024 541.07 10.3657C564.503 19.8113 577.283 37.2639 582.714 59.1326C583.228 61.1622 583.672 63.2272 584.047 65.3274C593.676 117.931 565.477 192.547 541.07 244.342Z" fill="#F2F2F2"/>
<path opacity="0.1" d="M279.697 248.468C279.47 250.554 279.118 252.624 278.644 254.668H331.374V248.468H279.697ZM235.662 283.49L241.914 283.44V268.123C239.77 268.028 237.682 267.933 235.662 267.833V283.49ZM104.587 248.468V254.668H216.292V248.468H104.587ZM582.742 59.1548H541.099V10.3712C539.091 9.56452 537.005 8.82107 534.841 8.14081V59.1548H392.162V7.62225C390.063 8.02929 387.981 8.45864 385.904 8.89356V59.1548H241.914V35.262C239.837 35.2007 237.75 35.1003 235.662 34.9665V59.1548H91.6716V24.5842C77.6986 33.0372 64.581 44.9251 52.8815 59.1548H52.8421V59.1994C51.1913 61.2067 49.5706 63.2512 47.9799 65.3329H52.8421V248.468H6.13403C6.75681 250.561 7.4321 252.628 8.15992 254.668H52.8364V306.87C55.0843 307.551 57.3787 308.071 59.7019 308.426C60.3829 308.532 61.0694 308.621 61.756 308.699C63.7719 308.922 65.7997 309.023 67.828 309L91.6491 308.743V254.657H235.662V307.188L241.914 307.121V254.668H385.904V305.61L392.162 305.543V254.668H534.813V257.328C535.24 256.447 535.679 255.566 536.118 254.668C537.105 252.642 538.105 250.576 539.118 248.468C539.767 247.115 540.418 245.739 541.07 244.342V65.3552H584.076C583.697 63.2401 583.252 61.1733 582.742 59.1548ZM91.6716 248.468V65.3329H235.662V248.468H91.6716ZM241.925 248.468V65.3329H385.904V248.468H241.925ZM534.824 248.468H392.162V65.3329H534.813L534.824 248.468Z" fill="black"/>
<path d="M485.702 297.558V304.807L400.209 305.588L399.297 305.604L366.804 305.9L366.028 305.911L356.152 305.995H355.859L295.656 306.547L196.832 307.455H196.748L171.621 307.69L171.351 307.695L59.7019 308.71V300.346L85.9541 284.734L138.627 284.299L139.753 284.293L140.124 284.288L141.25 284.271L166.539 284.065L167.671 284.059L168.031 284.053L169.156 284.048L177.265 283.981L177.479 283.975L197.485 283.808H197.648L353.754 282.503L357.575 282.475H357.958L360.873 282.448L382.06 282.275L383.186 282.258L384.227 282.247H384.767L391.357 282.197L392.663 282.18L394.413 282.169L399.9 282.119L408.605 282.046L409.731 282.035L411.689 282.024H412.055L454.098 281.667L485.702 297.558Z" fill="#65617D"/>
<path opacity="0.2" d="M485.702 297.558V304.807L400.209 305.588L399.297 305.604L366.804 305.9L366.028 305.911L356.152 305.995H355.859L295.656 306.547L196.832 307.455H196.748L171.621 307.69L171.351 307.695L59.7019 308.71V300.346L85.9541 284.734L138.627 284.299L139.753 284.293L140.124 284.288L141.25 284.271L166.539 284.065L167.671 284.059L168.031 284.053L169.156 284.048L177.265 283.981L177.479 283.975L197.485 283.808H197.648L353.754 282.503L357.575 282.475H357.958L360.873 282.448L382.06 282.275L383.186 282.258L384.227 282.247H384.767L391.357 282.197L392.663 282.18L394.413 282.169L399.9 282.119L408.605 282.046L409.731 282.035L411.689 282.024H412.055L454.098 281.667L485.702 297.558Z" fill="black"/>
<path d="M166.63 269.684V283.34C166.63 283.986 166.445 284.62 166.096 285.167C165.748 285.714 165.25 286.151 164.66 286.429C164.221 286.64 163.741 286.754 163.253 286.763L143.613 287.176C143.089 287.188 142.568 287.08 142.094 286.858C141.494 286.586 140.985 286.148 140.629 285.597C140.273 285.047 140.084 284.406 140.085 283.752V269.684H166.63Z" fill="#3F3D56"/>
<path opacity="0.1" d="M166.63 269.684V283.34C166.63 283.986 166.445 284.62 166.096 285.167C165.748 285.714 165.25 286.151 164.66 286.429C164.221 286.64 163.741 286.754 163.253 286.763L143.613 287.176C143.089 287.188 142.568 287.08 142.094 286.858C141.494 286.586 140.985 286.148 140.629 285.597C140.273 285.047 140.084 284.406 140.085 283.752V269.684H166.63Z" fill="black"/>
<path d="M167.755 269.684V283.34C167.755 283.986 167.57 284.62 167.222 285.167C166.873 285.714 166.375 286.151 165.785 286.429C165.346 286.64 164.866 286.754 164.379 286.763L144.739 287.176C144.214 287.188 143.694 287.08 143.219 286.858C142.619 286.586 142.111 286.148 141.755 285.597C141.398 285.047 141.21 284.406 141.21 283.752V269.684H167.755Z" fill="#3F3D56"/>
<path d="M409.731 269.679H383.186V287.243H409.731V269.679Z" fill="#3F3D56"/>
<path opacity="0.1" d="M409.731 269.679H383.186V287.243H409.731V269.679Z" fill="black"/>
<path d="M408.605 269.679H382.06V287.243H408.605V269.679Z" fill="#3F3D56"/>
<path opacity="0.1" d="M167.749 269.679V272.45L141.205 273.153V269.679H167.749Z" fill="black"/>
<path d="M214.604 174.169V267.956C214.597 268.528 214.368 269.076 213.965 269.486C213.562 269.896 213.015 270.137 212.437 270.158L104.587 273.002H104.559C103.971 272.995 103.41 272.76 102.995 272.349C102.58 271.937 102.343 271.381 102.336 270.799V174.169C102.343 173.587 102.58 173.031 102.995 172.62C103.41 172.208 103.971 171.974 104.559 171.967H212.381C212.968 171.974 213.529 172.208 213.945 172.62C214.36 173.031 214.596 173.587 214.604 174.169Z" fill="#EEDBFF"/>
<path opacity="0.1" d="M104.587 171.967V273.002H104.559C103.971 272.995 103.41 272.76 102.995 272.349C102.58 271.937 102.343 271.381 102.336 270.799V174.169C102.343 173.587 102.58 173.031 102.995 172.62C103.41 172.208 103.971 171.974 104.559 171.967H104.587Z" fill="black"/>
<path d="M109.505 177.955H209.393V260.618L109.505 262.848V177.955Z" fill="#2A0053"/>
<path opacity="0.1" d="M408.605 269.679V273.253L382.06 272.55V269.679H408.605Z" fill="black"/>
<path d="M443.642 174.169V270.799C443.634 271.386 443.394 271.946 442.973 272.359C442.551 272.771 441.983 273.002 441.391 273.002L333.518 270.158C332.94 270.137 332.393 269.896 331.99 269.486C331.587 269.076 331.358 268.528 331.351 267.956V174.169C331.359 173.587 331.595 173.031 332.01 172.62C332.426 172.208 332.987 171.974 333.574 171.967H441.397C441.988 171.968 442.555 172.2 442.975 172.612C443.395 173.024 443.635 173.583 443.642 174.169Z" fill="#EEDBFF"/>
<path opacity="0.1" d="M443.642 174.169V270.799C443.634 271.386 443.394 271.946 442.973 272.359C442.551 272.771 441.983 273.002 441.391 273.002V171.967C441.983 171.967 442.551 172.198 442.973 172.61C443.394 173.022 443.634 173.582 443.642 174.169Z" fill="black"/>
<path d="M436.461 177.955H336.573V260.618L436.461 262.848V177.955Z" fill="#2A0053"/>
<path d="M328.56 174.169V267.956C328.553 268.528 328.325 269.076 327.921 269.486C327.518 269.896 326.971 270.137 326.394 270.158L218.543 273.002C217.951 273.002 217.383 272.771 216.961 272.359C216.54 271.946 216.299 271.386 216.292 270.799V174.169C216.299 173.587 216.536 173.031 216.951 172.62C217.366 172.208 217.928 171.974 218.515 171.967H326.337C326.924 171.974 327.486 172.208 327.901 172.62C328.316 173.031 328.553 173.587 328.56 174.169Z" fill="#EEDBFF"/>
<path d="M223.461 177.955H323.349V260.618L223.461 262.848V177.955Z" fill="#2A0053"/>
<path opacity="0.1" d="M485.702 297.558V304.807L400.209 305.588L399.297 305.604L366.804 305.9L366.028 305.911L356.152 305.995H355.859L295.656 306.547L196.832 307.455H196.748L171.621 307.69L171.351 307.695L59.7019 308.71V300.346L173.664 299.605H173.934L197.001 299.448H197.108L356.41 298.406H356.574L356.669 298.4H356.934L359.629 298.383H360.451L402.37 298.105L404.846 298.094L405.398 298.088L485.702 297.558Z" fill="black"/>
<path d="M274.204 194.867C290.157 194.867 303.09 182.053 303.09 166.246C303.09 150.439 290.157 137.625 274.204 137.625C258.251 137.625 245.318 150.439 245.318 166.246C245.318 182.053 258.251 194.867 274.204 194.867Z" fill="#FBBEBE"/>
<path d="M303.096 210.301C303.096 210.301 247.102 216.992 252.448 210.301C254.384 207.881 254.919 200.71 254.812 192.542C254.778 190.06 254.688 187.49 254.559 184.931C253.94 172.664 252.448 160.675 252.448 160.675C252.448 160.675 301.407 137.814 295.78 155.936C293.529 163.257 294.266 173.539 295.977 183.191C296.478 186.007 297.057 188.767 297.665 191.387C299.148 197.78 300.961 204.092 303.096 210.301Z" fill="#FBBEBE"/>
<path d="M284.823 208.031C291.301 206.844 298.16 204.686 304.255 207.173C305.859 207.825 307.333 208.779 308.976 209.325C310.62 209.872 312.42 210.005 314.131 210.39C320.141 211.739 325.015 216.273 328.144 221.542C331.273 226.811 332.893 232.772 334.48 238.671L338.363 253.074C341.74 265.592 345.116 278.215 345.898 291.157C298.89 293.823 251.775 294.089 204.739 291.954C207.8 286.189 210.929 280.072 210.67 273.554C210.411 267.036 206.624 260.607 207.991 254.183C208.864 250.091 211.689 246.717 213.416 242.909C218.34 232.025 214.508 217.377 223.163 209.091C227.057 205.366 232.73 203.955 238.149 204.134C245.06 204.363 252.133 206.498 258.971 207.541C267.727 208.857 275.999 209.637 284.823 208.031Z" fill="#87458A"/>
<path opacity="0.1" d="M358.487 270.019L358.431 270.816V270.872L358.335 272.154L357.587 282.475L356.681 294.91L356.422 298.411L355.859 305.905V306L295.645 306.558L196.832 307.617V308.086H196.753V307.617V307.461L197.007 299.454L197.491 283.808L197.907 270.543L197.946 269.222C197.971 268.424 198.16 267.64 198.5 266.917C198.841 266.194 199.327 265.547 199.928 265.016C200.53 264.486 201.234 264.082 201.998 263.83C202.763 263.578 203.571 263.483 204.373 263.551C207.029 263.774 210.479 264.047 214.604 264.337L216.292 264.46C240.113 266.099 284.137 268.218 328.56 265.575C329.494 265.525 330.434 265.469 331.374 265.402C338.262 264.973 345.144 264.421 351.959 263.729C352.821 263.64 353.691 263.739 354.51 264.019C355.329 264.299 356.076 264.753 356.698 265.35C357.321 265.947 357.803 266.672 358.112 267.474C358.421 268.276 358.549 269.135 358.487 269.991V270.019Z" fill="black"/>
<path d="M196.815 308.086V307.617L295.645 306.552L355.859 305.995H356.028V305.9L356.59 298.406L356.832 295.06L357.755 282.453L358.481 272.472V272.227C358.515 271.767 358.494 271.305 358.419 270.85C358.422 270.831 358.422 270.812 358.419 270.794C358.265 269.853 357.878 268.964 357.294 268.207C356.674 267.419 355.862 266.801 354.935 266.411C354.007 266.021 352.995 265.871 351.993 265.976C345.178 266.668 338.295 267.22 331.407 267.649C330.468 267.716 329.528 267.772 328.594 267.822C284.17 270.437 240.147 268.318 216.326 266.707L214.637 266.584C210.512 266.294 207.063 266.026 204.407 265.798C202.945 265.676 201.49 266.094 200.322 266.973C199.154 267.851 198.356 269.127 198.081 270.554C198.025 270.856 197.991 271.162 197.98 271.469L197.597 283.825L197.074 299.476L196.826 307.483V307.639V308.108L196.815 308.086Z" fill="#3F3D56"/>
<path opacity="0.1" d="M358.656 273.928L357.963 282.475L356.934 295.216L356.675 298.406L356.112 305.549L356.078 305.905V306L355.994 306.825L356.056 306H355.893L295.679 306.558L196.832 307.617V307.461L197.108 299.454L197.671 283.808L198.031 273.409C198.048 272.817 198.215 272.24 198.516 271.728C198.817 271.217 199.242 270.788 199.753 270.482C200.39 270.095 201.135 269.919 201.88 269.98C203.062 270.075 204.514 270.186 206.207 270.309C208.959 270.51 212.353 270.744 216.303 270.989C223.619 271.446 232.797 271.937 243.315 272.338C272.578 273.454 312.083 273.827 349.607 270.571C351.295 270.426 353.039 270.264 354.745 270.102C355.419 270.036 356.1 270.164 356.703 270.47C356.874 270.555 357.036 270.656 357.187 270.772C357.677 271.123 358.065 271.596 358.312 272.143C358.37 272.252 358.417 272.366 358.453 272.483C358.622 272.945 358.691 273.437 358.656 273.928Z" fill="black"/>
<path opacity="0.1" d="M167.755 281.561V283.34C167.755 283.986 167.57 284.62 167.222 285.167C166.873 285.714 166.375 286.151 165.785 286.429L143.219 286.858C142.619 286.586 142.111 286.148 141.755 285.597C141.398 285.047 141.21 284.406 141.21 283.752V282.08L167.755 281.561Z" fill="black"/>
<path d="M168.031 287.477L138.627 288.035V283.2L168.031 282.643V287.477Z" fill="#3F3D56"/>
<path opacity="0.1" d="M168.031 287.477L138.627 288.035V283.2L168.031 282.643V287.477Z" fill="black"/>
<path d="M169.156 287.477L139.753 288.035V283.2L169.156 282.643V287.477Z" fill="#3F3D56"/>
<path opacity="0.1" d="M382.229 282.676V284.455C382.229 285.102 382.414 285.735 382.762 286.282C383.111 286.829 383.609 287.266 384.199 287.544L406.765 287.973C407.365 287.701 407.873 287.263 408.23 286.713C408.586 286.162 408.775 285.521 408.774 284.867V283.195L382.229 282.676Z" fill="black"/>
<path opacity="0.1" d="M381.948 288.592L411.351 289.15V284.315L381.948 283.758V288.592Z" fill="black"/>
<path d="M380.822 288.592L410.226 289.15V284.315L380.822 283.758V288.592Z" fill="#3F3D56"/>
<path d="M255.932 175.017C255.977 178.92 254.154 182.6 252.606 186.207C246.971 199.349 244.531 213.618 245.482 227.865C245.892 233.998 246.933 240.132 245.892 246.21C244.851 252.287 241.148 258.348 235.2 260.094C245.065 265.921 258.419 265.307 267.704 258.611C272.651 255.042 276.337 250.063 279.944 245.167C279.516 253.961 276.946 262.522 272.454 270.119C280.573 269.407 288.451 267.013 295.577 263.092C302.704 259.171 308.919 253.811 313.822 247.358C316.247 244.119 318.357 240.561 319.292 236.636C321.03 229.387 318.605 221.854 316.754 214.611C315.206 208.556 314.047 202.41 313.281 196.211C313.039 194.226 312.842 192.185 313.338 190.244C313.9 187.975 315.403 186.057 316.512 183.988C319.663 178.111 319.736 170.996 318.121 164.539C316.506 158.082 313.343 152.127 310.209 146.245C307.699 141.528 304.975 136.593 300.383 133.822C297.513 132.093 294.193 131.374 290.884 130.677L276.607 127.649C273.484 126.986 270.271 126.322 267.114 126.807C261.784 127.632 258.031 131.446 254.733 135.361C252.15 138.405 245.836 144.12 245.392 148.107C244.986 151.782 248.262 157.938 248.819 161.813C249.55 166.831 250.068 165.158 252.927 168.236C254.733 170.143 255.898 172.346 255.932 175.017Z" fill="#3F3D56"/>
<path d="M168.97 186.007H112.921C112.846 186.007 112.775 185.977 112.722 185.925C112.669 185.873 112.639 185.802 112.639 185.728C112.639 185.654 112.669 185.583 112.722 185.531C112.775 185.478 112.846 185.449 112.921 185.449H168.97C169.045 185.449 169.117 185.478 169.169 185.531C169.222 185.583 169.252 185.654 169.252 185.728C169.252 185.802 169.222 185.873 169.169 185.925C169.117 185.977 169.045 186.007 168.97 186.007Z" fill="#F2F2F2"/>
<path d="M168.97 191.025H112.921C112.846 191.025 112.775 190.996 112.722 190.943C112.669 190.891 112.639 190.82 112.639 190.746C112.639 190.672 112.669 190.601 112.722 190.549C112.775 190.497 112.846 190.467 112.921 190.467H168.97C169.045 190.467 169.117 190.497 169.169 190.549C169.222 190.601 169.252 190.672 169.252 190.746C169.252 190.82 169.222 190.891 169.169 190.943C169.117 190.996 169.045 191.025 168.97 191.025Z" fill="#F2F2F2"/>
<path d="M168.97 196.043H112.921C112.846 196.043 112.775 196.014 112.722 195.962C112.669 195.909 112.639 195.838 112.639 195.765C112.639 195.691 112.669 195.62 112.722 195.567C112.775 195.515 112.846 195.486 112.921 195.486H168.97C169.045 195.486 169.117 195.515 169.169 195.567C169.222 195.62 169.252 195.691 169.252 195.765C169.252 195.838 169.222 195.909 169.169 195.962C169.117 196.014 169.045 196.043 168.97 196.043Z" fill="#F2F2F2"/>
</g>
<defs>
<clipPath id="clip0_66_404">
<rect width="586" height="309" fill="white"/>
</clipPath>
</defs>
</svg>
