<svg width="52" height="56" viewBox="0 0 52 56" fill="none" xmlns="http://www.w3.org/2000/svg">
<path fill-rule="evenodd" clip-rule="evenodd" d="M44.1858 0C48.4943 0 52 3.63632 52 8.10526C52 11.1889 50.3306 13.8747 47.8798 15.2445V31.0203C47.7903 33.4298 45.9504 35.2947 43.6885 35.2947H42.5519V35.4421C42.5519 37.3579 40.9891 38.9789 39.1421 38.9789H3.40984C1.4918 38.9789 0 37.3579 0 35.4421V15.9895C0 14.0737 1.56284 12.4526 3.40984 12.4526H3.83607V11.5684C3.83607 9.212 5.68448 7.29474 7.95628 7.29474H36.4114C36.8042 3.20453 40.1409 0 44.1858 0ZM43.6885 33.8218C45.1832 33.8218 46.4001 32.5787 46.4597 30.9923L46.459 15.8583C45.7394 16.086 44.9764 16.2105 44.1858 16.2105C40.0933 16.2105 36.731 12.9279 36.4043 8.76842H7.95628C6.46803 8.76842 5.25683 10.024 5.25683 11.5684V31.0211C5.25683 32.5397 6.4929 33.8218 7.95628 33.8218H43.6885ZM37.7923 8.10526C37.7923 11.7615 40.6602 14.7368 44.1858 14.7368C47.7114 14.7368 50.5792 11.7615 50.5792 8.10526C50.5792 4.44905 47.7114 1.47368 44.1858 1.47368C40.6602 1.47368 37.7923 4.44905 37.7923 8.10526ZM14.7049 10.8316H11.4372C11.045 10.8316 10.7268 11.1617 10.7268 11.5684C10.7268 13.1261 9.42536 14.4421 7.88525 14.4421C7.49312 14.4421 7.17487 14.7722 7.17487 15.179V18.4947C7.17487 18.9015 7.49312 19.2316 7.88525 19.2316C8.27738 19.2316 8.59563 18.9015 8.59563 18.4947V15.8524C10.346 15.5385 11.7703 14.0892 12.0836 12.3053H14.7049C15.0971 12.3053 15.4153 11.9752 15.4153 11.5684C15.4153 11.1617 15.0971 10.8316 14.7049 10.8316ZM14.6339 30.3579H12.0147C11.7106 28.546 10.3027 27.1128 8.52388 26.8078V24.1684C8.52388 23.7617 8.20562 23.4316 7.81349 23.4316C7.42136 23.4316 7.10311 23.7617 7.10311 24.1684V27.4842C7.10311 27.8909 7.42136 28.221 7.81349 28.221C9.40688 28.221 10.655 29.4833 10.655 31.0947C10.655 31.5022 10.9733 31.8316 11.3654 31.8316H14.6332C15.0253 31.8316 15.3435 31.5022 15.3435 31.0947C15.3435 30.6873 15.026 30.3579 14.6339 30.3579ZM43.1913 26.8107V24.1684C43.1913 23.7617 43.5088 23.4316 43.9017 23.4316C44.2945 23.4316 44.612 23.7617 44.612 24.1684V27.4842C44.612 27.8909 44.2945 28.221 43.9017 28.221C42.3615 28.221 41.0601 29.537 41.0601 31.0947C41.0601 31.5022 40.7426 31.8316 40.3497 31.8316H37.082C36.6891 31.8316 36.3716 31.5022 36.3716 31.0947C36.3716 30.6873 36.6891 30.3579 37.082 30.3579H39.704C40.0166 28.574 41.4402 27.1246 43.1913 26.8107ZM25.7869 27.1895C28.9255 27.1895 31.4699 24.5503 31.4699 21.2948C31.4699 18.0392 28.9255 15.4 25.7869 15.4C22.6482 15.4 20.1038 18.0392 20.1038 21.2948C20.1038 24.5503 22.6482 27.1895 25.7869 27.1895ZM46.8803 5.37379L43.1202 9.2739L41.4913 7.58432C41.2135 7.29622 40.7646 7.29622 40.4868 7.58432C40.2091 7.87243 40.2091 8.33811 40.4868 8.62622L42.618 10.8367C42.7565 10.9804 42.9384 11.0526 43.1202 11.0526C43.3021 11.0526 43.4839 10.9804 43.6225 10.8367L47.8847 6.41569C48.1625 6.12758 48.1625 5.6619 47.8847 5.37379C47.607 5.08569 47.158 5.08569 46.8803 5.37379ZM46.6292 43.9948C46.6314 44.0038 46.6336 44.0129 46.6359 44.0219C46.6371 44.0266 46.6383 44.0313 46.6395 44.036C46.6511 44.0811 46.6624 44.1248 46.6643 44.1715C46.6647 44.1777 46.6664 44.1836 46.6681 44.1895C46.6701 44.1963 46.6721 44.2031 46.6721 44.2105V50.8421C46.6721 51.2496 46.3546 51.579 45.9617 51.579C45.5689 51.579 45.2514 51.2496 45.2514 50.8421V46.312L37.992 55.7237C37.857 55.8983 37.6531 56 37.4372 56C37.2212 56 37.0173 55.8983 36.8824 55.7237L28.833 45.2863L20.8682 52.8589C20.638 53.0762 20.2985 53.1145 20.0299 52.9524L11.9351 48.0547L3.79344 55.093C3.49153 55.3516 3.04399 55.3103 2.79322 54.9987C2.54246 54.6855 2.58295 54.2213 2.88415 53.9604L11.4087 46.592C11.6389 46.3938 11.9635 46.3666 12.2214 46.5213L20.2935 51.4058L28.4323 43.6675C28.5773 43.529 28.7641 43.4568 28.9673 43.4759C29.1633 43.4914 29.3438 43.5909 29.4674 43.75L37.4372 54.0835L44.4834 44.9474H39.5683C39.1755 44.9474 38.8579 44.618 38.8579 44.2105C38.8579 43.8031 39.1755 43.4737 39.5683 43.4737H45.9617C45.9799 43.4737 45.9965 43.4785 46.0131 43.4833C46.0258 43.4869 46.0385 43.4905 46.052 43.4921C46.1017 43.4988 46.1486 43.5054 46.1962 43.5223C46.2424 43.5393 46.2828 43.5643 46.324 43.5909C46.3353 43.598 46.3473 43.6032 46.3591 43.6085C46.3756 43.6158 46.392 43.6231 46.4064 43.6351C46.4122 43.6398 46.416 43.6456 46.4199 43.6515C46.4233 43.6565 46.4267 43.6616 46.4313 43.666C46.4655 43.6981 46.4918 43.7352 46.5191 43.7738L46.5258 43.7832C46.5319 43.792 46.5382 43.8007 46.5444 43.8093C46.5641 43.8366 46.5835 43.8635 46.5975 43.8937C46.6122 43.9253 46.6206 43.9598 46.6292 43.9948Z" fill="black"/>
</svg>
